<svg width="37" height="37" viewBox="0 0 37 37" fill="none" xmlns="http://www.w3.org/2000/svg">
<path d="M18.3545 22.5469C19.4278 22.5469 20.4572 22.1206 21.2161 21.3616C21.9751 20.6027 22.4014 19.5734 22.4014 18.5001C22.4014 18.3816 22.396 18.2641 22.3859 18.1481L18.0026 22.5314C18.1186 22.5415 18.2357 22.5469 18.3545 22.5469ZM31.7497 5.98221L30.2061 4.44007C30.1519 4.3859 30.0784 4.35547 30.0018 4.35547C29.9251 4.35547 29.8517 4.3859 29.7974 4.44007L25.8474 8.39119C23.6684 7.27758 21.2189 6.72077 18.4991 6.72077C11.5544 6.72077 6.37291 10.3377 2.95474 17.5715C2.81735 17.8624 2.74609 18.1801 2.74609 18.5019C2.74609 18.8236 2.81735 19.1414 2.95474 19.4323C4.32056 22.3092 5.96521 24.6151 7.88868 26.3499L4.06619 30.171C4.01202 30.2252 3.98159 30.2987 3.98159 30.3753C3.98159 30.4519 4.01202 30.5254 4.06619 30.5796L5.6087 32.1221C5.6629 32.1763 5.7364 32.2067 5.81303 32.2067C5.88966 32.2067 5.96316 32.1763 6.01736 32.1221L31.7497 6.39124C31.7766 6.36439 31.7979 6.33251 31.8124 6.29742C31.827 6.26233 31.8345 6.22471 31.8345 6.18673C31.8345 6.14874 31.827 6.11112 31.8124 6.07603C31.7979 6.04094 31.7766 6.00906 31.7497 5.98221ZM11.9952 18.5001C11.9951 17.4017 12.2795 16.3219 12.8207 15.3661C13.3619 14.4103 14.1415 13.6109 15.0834 13.0459C16.0254 12.4809 17.0976 12.1695 18.1957 12.1421C19.2938 12.1147 20.3802 12.3721 21.3492 12.8894L19.5925 14.6461C18.884 14.4193 18.1267 14.392 17.4037 14.5672C16.6807 14.7424 16.0199 15.1134 15.4939 15.6394C14.9678 16.1654 14.5969 16.8262 14.4217 17.5492C14.2464 18.2722 14.2738 19.0295 14.5006 19.738L12.7438 21.4948C12.2508 20.5737 11.9936 19.5448 11.9952 18.5001V18.5001Z" fill="black"/>
<path d="M34.0449 17.5678C32.7731 14.8892 31.2592 12.7049 29.5034 11.0151L24.2952 16.2237C24.7342 17.3713 24.8316 18.6215 24.5754 19.8233C24.3192 21.025 23.7206 22.1269 22.8517 22.9957C21.9829 23.8646 20.881 24.4632 19.6793 24.7194C18.4775 24.9755 17.2273 24.8782 16.0797 24.4392L11.6621 28.8568C13.7116 29.8052 15.9911 30.2793 18.5006 30.2793C25.4453 30.2793 30.6268 26.6625 34.0449 19.4287C34.1824 19.1377 34.2536 18.82 34.2536 18.4982C34.2536 18.1765 34.1824 17.8587 34.0449 17.5678V17.5678Z" fill="black"/>
</svg>
