<svg width="33" height="25" viewBox="0 0 33 25" fill="none" xmlns="http://www.w3.org/2000/svg">
<path d="M12.3077 12.5C12.3077 13.5733 12.734 14.6026 13.493 15.3616C14.2519 16.1205 15.2813 16.5469 16.3545 16.5469C17.4278 16.5469 18.4572 16.1205 19.2161 15.3616C19.9751 14.6026 20.4014 13.5733 20.4014 12.5C20.4014 11.4267 19.9751 10.3974 19.2161 9.63843C18.4572 8.87949 17.4278 8.45312 16.3545 8.45312C15.2813 8.45312 14.2519 8.87949 13.493 9.63843C12.734 10.3974 12.3077 11.4267 12.3077 12.5V12.5ZM32.0434 11.5678C28.618 4.35205 23.4402 0.720703 16.4991 0.720703C9.55435 0.720703 4.38013 4.35205 0.954744 11.5714C0.81735 11.8623 0.746094 12.1801 0.746094 12.5018C0.746094 12.8235 0.81735 13.1413 0.954744 13.4322C4.38013 20.6479 9.55797 24.2793 16.4991 24.2793C23.4438 24.2793 28.618 20.6479 32.0434 13.4286C32.3216 12.8433 32.3216 12.164 32.0434 11.5678V11.5678ZM16.3545 18.8594C12.8424 18.8594 9.99517 16.0121 9.99517 12.5C9.99517 8.98789 12.8424 6.14062 16.3545 6.14062C19.8667 6.14062 22.7139 8.98789 22.7139 12.5C22.7139 16.0121 19.8667 18.8594 16.3545 18.8594Z" fill="black"/>
</svg>
